<svg data-v-423bf9ae="" xmlns="http://www.w3.org/2000/svg" viewBox="0 0 278 90" class="iconLeft"><!----><!----><!----><g data-v-423bf9ae="" id="449222fc-6561-4d30-a0a6-453370c337b3" fill="black" transform="matrix(5.305039590974076,0,0,5.305039590974076,119.39535712294712,1.0477457454617394)"><path d="M8.13 6.38L8.13 6.38Q7.94 7.49 7.32 8.25L7.32 8.25L7.32 8.25Q6.71 9.02 5.74 9.37L5.74 9.37L7.29 13.79L5.48 13.79L4.17 9.65L4.02 9.65L2.88 9.65L2.15 13.78L0.44 13.78L2.37 2.80L5.27 2.80L5.27 2.80Q6.20 2.80 6.86 3.12L6.86 3.12L6.86 3.12Q7.52 3.45 7.86 4.06L7.86 4.06L7.86 4.06Q8.21 4.67 8.21 5.53L8.21 5.53L8.21 5.53Q8.21 5.97 8.13 6.38L8.13 6.38ZM6.49 6.17L6.49 6.17Q6.54 5.90 6.54 5.63L6.54 5.63L6.54 5.63Q6.54 4.94 6.16 4.58L6.16 4.58L6.16 4.58Q5.78 4.22 5.01 4.22L5.01 4.22L3.83 4.22L3.12 8.29L4.12 8.29L4.12 8.29Q5.10 8.29 5.70 7.74L5.70 7.74L5.70 7.74Q6.31 7.19 6.49 6.17L6.49 6.17ZM12.26 13.94L12.26 13.94Q10.62 13.94 9.81 12.89L9.81 12.89L9.81 12.89Q9.00 11.84 9.00 10.00L9.00 10.00L9.00 10.00Q9.00 9.13 9.17 8.18L9.17 8.18L9.17 8.18Q9.47 6.53 10.11 5.28L10.11 5.28L10.11 5.28Q10.75 4.03 11.74 3.33L11.74 3.33L11.74 3.33Q12.74 2.63 14.04 2.63L14.04 2.63L14.04 2.63Q14.94 2.63 15.63 3.01L15.63 3.01L15.63 3.01Q16.32 3.39 16.71 4.09L16.71 4.09L16.71 4.09Q17.11 4.80 17.16 5.76L17.16 5.76L15.65 6.13L15.65 6.13Q15.61 5.17 15.21 4.66L15.21 4.66L15.21 4.66Q14.80 4.14 14.01 4.14L14.01 4.14L14.01 4.14Q13.23 4.14 12.59 4.66L12.59 4.66L12.59 4.66Q11.95 5.17 11.50 6.11L11.50 6.11L11.50 6.11Q11.05 7.05 10.83 8.34L10.83 8.34L10.83 8.34Q10.68 9.19 10.68 9.93L10.68 9.93L10.68 9.93Q10.68 11.12 11.10 11.77L11.10 11.77L11.10 11.77Q11.53 12.43 12.35 12.43L12.35 12.43L12.35 12.43Q13.15 12.43 13.83 11.85L13.83 11.85L13.83 11.85Q14.50 11.27 14.90 10.31L14.90 10.31L16.28 10.91L16.28 10.91Q15.89 11.87 15.28 12.55L15.28 12.55L15.28 12.55Q14.67 13.23 13.89 13.58L13.89 13.58L13.89 13.58Q13.12 13.94 12.26 13.94L12.26 13.94ZM17.46 13.94L17.46 13.94Q17.23 13.94 16.88 13.89L16.88 13.89L16.88 13.89Q16.53 13.84 16.30 13.76L16.30 13.76L16.45 12.35L16.45 12.35Q16.69 12.43 16.86 12.46L16.86 12.46L16.86 12.46Q17.04 12.49 17.23 12.49L17.23 12.49L17.23 12.49Q17.99 12.49 18.44 12.00L18.44 12.00L18.44 12.00Q18.88 11.51 19.06 10.51L19.06 10.51L20.42 2.80L22.14 2.80L20.75 10.69L20.75 10.69Q20.46 12.37 19.66 13.15L19.66 13.15L19.66 13.15Q18.85 13.94 17.46 13.94L17.46 13.94ZM22.40 13.78L24.34 2.80L29.75 2.80L29.49 4.30L25.80 4.30L25.22 7.54L28.46 7.54L28.20 9.04L24.96 9.04L24.39 12.28L28.08 12.28L27.82 13.78L22.40 13.78Z"></path></g><!----><g data-v-423bf9ae="" id="5334a67c-2cfb-4288-b3d9-2e61ce457a10" transform="matrix(1.1654322900128808,0,0,1.1654322900128808,-6.912965075894782,-12.883685994515169)" stroke="none" fill="black"><path d="M7.942 60.363c.846 0 1.533-.687 1.533-1.534 0-.3-.09-.582-.24-.818l8.451-8.803a1.53 1.53 0 0 0 1.895-.291l8.048 4.411a1.533 1.533 0 1 0 3.013.393c0-.326-.104-.628-.278-.876l8.403-9.588a1.533 1.533 0 0 0 2.217-1.607l7.65-3.26a1.53 1.53 0 0 0 2.616-.279l7.745 1.493a1.531 1.531 0 1 0 2.736-.963l8.954-17.514a1.536 1.536 0 0 0 1.306-.291l8.012 6.207a1.533 1.533 0 1 0 2.565-.37l8.915-12.333a1.533 1.533 0 1 0-.592-.428l-8.913 12.333a1.526 1.526 0 0 0-1.529.22l-8.013-6.207a1.533 1.533 0 1 0-2.402.535l-8.891 17.391a1.53 1.53 0 0 0-1.981.708l-7.773-1.497a1.53 1.53 0 1 0-3.04.324l-7.65 3.259a1.528 1.528 0 0 0-1.225-.614 1.534 1.534 0 0 0-1.255 2.411l-8.404 9.586a1.527 1.527 0 0 0-1.835.326l-8.048-4.411a1.534 1.534 0 1 0-3.013-.395c0 .302.088.583.239.82l-8.45 8.803a1.532 1.532 0 1 0-.766 2.859zM92.059 66.326c-.886 0-1.605.721-1.605 1.605 0 .125.016.246.044.364l-7.854 3.864a1.604 1.604 0 0 0-2.832 1.212l-7.444 2.733a1.607 1.607 0 0 0-1.33-.706c-.683 0-1.266.432-1.497 1.034l-7.458-.897a1.609 1.609 0 0 0-1.554-1.206 1.61 1.61 0 0 0-1.585 1.347l-7.563 1.586a1.608 1.608 0 0 0-1.521-1.095c-.538 0-1.014.268-1.305.675L40.814 72.7a1.608 1.608 0 0 0-1.339-2.491c-.846 0-1.54.658-1.6 1.489l-7.161-1.461a1.606 1.606 0 1 0-3.187.306l-7.771 3.229a1.604 1.604 0 1 0-2.594 1.884L8.68 85.583a1.587 1.587 0 0 0-.738-.183c-.886 0-1.606.721-1.606 1.606 0 .885.72 1.605 1.606 1.605.885 0 1.605-.721 1.605-1.605 0-.355-.118-.683-.313-.95l8.481-9.921c.221.114.472.181.738.181a1.608 1.608 0 0 0 1.582-1.87l7.772-3.226c.291.403.766.668 1.302.668.646 0 1.203-.384 1.458-.936l7.443 1.521a1.604 1.604 0 0 0 2.234.753l8.031 4.296a1.609 1.609 0 0 0 1.584 1.859c.811 0 1.48-.604 1.589-1.385l7.545-1.585a1.607 1.607 0 0 0 1.534 1.131 1.61 1.61 0 0 0 1.569-1.269l7.342.885a1.61 1.61 0 0 0 1.598 1.454 1.607 1.607 0 0 0 1.59-1.826l7.435-2.729c.286.438.78.725 1.341.725.885 0 1.605-.722 1.605-1.606 0-.124-.016-.245-.044-.361l7.854-3.865a1.6 1.6 0 0 0 1.24.589 1.607 1.607 0 0 0 .002-3.213zM7.942 72.403A1.554 1.554 0 0 0 9.471 70.6l7.739-3.278c.283.381.734.628 1.244.628.82 0 1.492-.641 1.545-1.447l7.688-1.327c.239.55.787.936 1.423.936a1.552 1.552 0 0 0 1.355-2.303l8.148-7.496c.246.166.543.262.861.262.855 0 1.551-.696 1.551-1.552v-.014l7.551-1.903a1.55 1.55 0 0 0 2.973-.565l7.549-.978c.235.557.787.949 1.43.949a1.552 1.552 0 0 0 1.522-1.843l7.695-3.777a1.552 1.552 0 0 0 2.845-.855c0-.371-.13-.71-.348-.976l8.423-9.339c.218.119.471.188.738.188a1.553 1.553 0 0 0 1.536-1.762l7.852-3.077c.281.4.744.663 1.269.663.855 0 1.553-.697 1.553-1.552 0-.855-.697-1.551-1.553-1.551-.854 0-1.552.696-1.552 1.551 0 .071.008.142.017.21l-7.853 3.078a1.55 1.55 0 0 0-2.55 1.762l-8.462 9.385a1.552 1.552 0 0 0-2.164 1.586l-7.749 3.804a1.55 1.55 0 0 0-2.766.837l-7.585.98a1.548 1.548 0 0 0-2.942.562l-7.607 1.918a1.551 1.551 0 1 0-2.728 1.474l-8.147 7.496a1.54 1.54 0 0 0-.862-.264c-.82 0-1.492.641-1.545 1.448l-7.688 1.327a1.552 1.552 0 0 0-2.975.614c0 .086.009.17.023.253l-7.74 3.276a1.543 1.543 0 0 0-1.242-.626c-.855 0-1.552.694-1.552 1.55 0 .854.696 1.551 1.551 1.551z"></path></g><!----></svg>